<mxfile host="app.diagrams.net" modified="2021-12-23T21:27:03.484Z" agent="5.0 (Windows NT 10.0; Win64; x64) AppleWebKit/537.36 (KHTML, like Gecko) Chrome/96.0.4664.110 Safari/537.36 Edg/96.0.1054.57" etag="v8637oFIvgC5LXqIl2rU" version="16.0.3" type="github" pages="2">
  <diagram id="C5RBs43oDa-KdzZeNtuy" name="Company Auth">
    <mxGraphModel dx="1165" dy="794" grid="1" gridSize="10" guides="1" tooltips="1" connect="1" arrows="1" fold="1" page="1" pageScale="1" pageWidth="827" pageHeight="1169" math="0" shadow="0">
      <root>
        <mxCell id="WIyWlLk6GJQsqaUBKTNV-0" />
        <mxCell id="WIyWlLk6GJQsqaUBKTNV-1" parent="WIyWlLk6GJQsqaUBKTNV-0" />
        <mxCell id="IbO78vqItWdfQY8n-Jqq-18" style="edgeStyle=none;rounded=0;orthogonalLoop=1;jettySize=auto;html=1;exitX=0.5;exitY=1;exitDx=0;exitDy=0;entryX=0.5;entryY=0;entryDx=0;entryDy=0;" edge="1" parent="WIyWlLk6GJQsqaUBKTNV-1" source="WIyWlLk6GJQsqaUBKTNV-3" target="usHMp_J7oU0mmYKUMosu-8">
          <mxGeometry relative="1" as="geometry" />
        </mxCell>
        <mxCell id="WIyWlLk6GJQsqaUBKTNV-3" value="Developer&lt;br&gt;(sys admin)" style="rounded=1;whiteSpace=wrap;html=1;fontSize=12;glass=0;strokeWidth=1;shadow=0;" parent="WIyWlLk6GJQsqaUBKTNV-1" vertex="1">
          <mxGeometry x="120" y="130" width="120" height="40" as="geometry" />
        </mxCell>
        <mxCell id="WIyWlLk6GJQsqaUBKTNV-4" value="Yes" style="rounded=0;html=1;jettySize=auto;orthogonalLoop=1;fontSize=11;endArrow=block;endFill=0;endSize=8;strokeWidth=1;shadow=0;labelBackgroundColor=none;edgeStyle=orthogonalEdgeStyle;" parent="WIyWlLk6GJQsqaUBKTNV-1" source="WIyWlLk6GJQsqaUBKTNV-6" target="WIyWlLk6GJQsqaUBKTNV-10" edge="1">
          <mxGeometry y="20" relative="1" as="geometry">
            <mxPoint as="offset" />
          </mxGeometry>
        </mxCell>
        <mxCell id="WIyWlLk6GJQsqaUBKTNV-5" value="No" style="edgeStyle=orthogonalEdgeStyle;rounded=0;html=1;jettySize=auto;orthogonalLoop=1;fontSize=11;endArrow=block;endFill=0;endSize=8;strokeWidth=1;shadow=0;labelBackgroundColor=none;" parent="WIyWlLk6GJQsqaUBKTNV-1" source="WIyWlLk6GJQsqaUBKTNV-6" target="WIyWlLk6GJQsqaUBKTNV-7" edge="1">
          <mxGeometry y="10" relative="1" as="geometry">
            <mxPoint as="offset" />
          </mxGeometry>
        </mxCell>
        <mxCell id="WIyWlLk6GJQsqaUBKTNV-6" value="User &lt;br&gt;Logged in" style="rhombus;whiteSpace=wrap;html=1;shadow=0;fontFamily=Helvetica;fontSize=12;align=center;strokeWidth=1;spacing=6;spacingTop=-4;" parent="WIyWlLk6GJQsqaUBKTNV-1" vertex="1">
          <mxGeometry x="115" y="790" width="100" height="80" as="geometry" />
        </mxCell>
        <mxCell id="WIyWlLk6GJQsqaUBKTNV-7" value="Redirect to login page" style="rounded=1;whiteSpace=wrap;html=1;fontSize=12;glass=0;strokeWidth=1;shadow=0;" parent="WIyWlLk6GJQsqaUBKTNV-1" vertex="1">
          <mxGeometry x="90" y="930" width="150" height="40" as="geometry" />
        </mxCell>
        <mxCell id="IbO78vqItWdfQY8n-Jqq-27" style="edgeStyle=orthogonalEdgeStyle;rounded=0;orthogonalLoop=1;jettySize=auto;html=1;exitX=1;exitY=0.5;exitDx=0;exitDy=0;entryX=0;entryY=0.5;entryDx=0;entryDy=0;" edge="1" parent="WIyWlLk6GJQsqaUBKTNV-1" source="WIyWlLk6GJQsqaUBKTNV-10" target="IbO78vqItWdfQY8n-Jqq-26">
          <mxGeometry relative="1" as="geometry" />
        </mxCell>
        <mxCell id="IbO78vqItWdfQY8n-Jqq-28" style="edgeStyle=orthogonalEdgeStyle;rounded=0;orthogonalLoop=1;jettySize=auto;html=1;exitX=1;exitY=0.5;exitDx=0;exitDy=0;entryX=0;entryY=0.5;entryDx=0;entryDy=0;" edge="1" parent="WIyWlLk6GJQsqaUBKTNV-1" source="WIyWlLk6GJQsqaUBKTNV-10" target="IbO78vqItWdfQY8n-Jqq-25">
          <mxGeometry relative="1" as="geometry" />
        </mxCell>
        <mxCell id="IbO78vqItWdfQY8n-Jqq-29" style="edgeStyle=orthogonalEdgeStyle;rounded=0;orthogonalLoop=1;jettySize=auto;html=1;exitX=1;exitY=0.5;exitDx=0;exitDy=0;entryX=0;entryY=0.5;entryDx=0;entryDy=0;" edge="1" parent="WIyWlLk6GJQsqaUBKTNV-1" source="WIyWlLk6GJQsqaUBKTNV-10" target="IbO78vqItWdfQY8n-Jqq-22">
          <mxGeometry relative="1" as="geometry" />
        </mxCell>
        <mxCell id="IbO78vqItWdfQY8n-Jqq-30" style="edgeStyle=orthogonalEdgeStyle;rounded=0;orthogonalLoop=1;jettySize=auto;html=1;exitX=1;exitY=0.5;exitDx=0;exitDy=0;entryX=0;entryY=0.5;entryDx=0;entryDy=0;" edge="1" parent="WIyWlLk6GJQsqaUBKTNV-1" source="WIyWlLk6GJQsqaUBKTNV-10" target="IbO78vqItWdfQY8n-Jqq-23">
          <mxGeometry relative="1" as="geometry" />
        </mxCell>
        <mxCell id="IbO78vqItWdfQY8n-Jqq-31" style="edgeStyle=orthogonalEdgeStyle;rounded=0;orthogonalLoop=1;jettySize=auto;html=1;exitX=1;exitY=0.5;exitDx=0;exitDy=0;entryX=0;entryY=0.5;entryDx=0;entryDy=0;" edge="1" parent="WIyWlLk6GJQsqaUBKTNV-1" source="WIyWlLk6GJQsqaUBKTNV-10" target="IbO78vqItWdfQY8n-Jqq-24">
          <mxGeometry relative="1" as="geometry" />
        </mxCell>
        <mxCell id="WIyWlLk6GJQsqaUBKTNV-10" value="Role&lt;br&gt;Identified" style="rhombus;whiteSpace=wrap;html=1;shadow=0;fontFamily=Helvetica;fontSize=12;align=center;strokeWidth=1;spacing=6;spacingTop=-4;" parent="WIyWlLk6GJQsqaUBKTNV-1" vertex="1">
          <mxGeometry x="255" y="790" width="115" height="80" as="geometry" />
        </mxCell>
        <mxCell id="usHMp_J7oU0mmYKUMosu-7" style="edgeStyle=orthogonalEdgeStyle;rounded=0;orthogonalLoop=1;jettySize=auto;html=1;exitX=0.5;exitY=1;exitDx=0;exitDy=0;entryX=0;entryY=0.5;entryDx=0;entryDy=0;" edge="1" parent="WIyWlLk6GJQsqaUBKTNV-1" source="usHMp_J7oU0mmYKUMosu-2" target="WIyWlLk6GJQsqaUBKTNV-3">
          <mxGeometry relative="1" as="geometry">
            <mxPoint x="40" y="150" as="targetPoint" />
          </mxGeometry>
        </mxCell>
        <mxCell id="usHMp_J7oU0mmYKUMosu-12" style="edgeStyle=orthogonalEdgeStyle;rounded=0;orthogonalLoop=1;jettySize=auto;html=1;exitX=0.5;exitY=1;exitDx=0;exitDy=0;entryX=0;entryY=0.5;entryDx=0;entryDy=0;" edge="1" parent="WIyWlLk6GJQsqaUBKTNV-1" source="usHMp_J7oU0mmYKUMosu-2" target="usHMp_J7oU0mmYKUMosu-11">
          <mxGeometry relative="1" as="geometry" />
        </mxCell>
        <mxCell id="usHMp_J7oU0mmYKUMosu-13" style="edgeStyle=orthogonalEdgeStyle;rounded=0;orthogonalLoop=1;jettySize=auto;html=1;exitX=0.5;exitY=1;exitDx=0;exitDy=0;entryX=0;entryY=0.5;entryDx=0;entryDy=0;" edge="1" parent="WIyWlLk6GJQsqaUBKTNV-1" source="usHMp_J7oU0mmYKUMosu-2" target="usHMp_J7oU0mmYKUMosu-10">
          <mxGeometry relative="1" as="geometry" />
        </mxCell>
        <mxCell id="usHMp_J7oU0mmYKUMosu-14" style="edgeStyle=orthogonalEdgeStyle;rounded=0;orthogonalLoop=1;jettySize=auto;html=1;exitX=0.5;exitY=1;exitDx=0;exitDy=0;entryX=0;entryY=0.5;entryDx=0;entryDy=0;" edge="1" parent="WIyWlLk6GJQsqaUBKTNV-1" source="usHMp_J7oU0mmYKUMosu-2" target="usHMp_J7oU0mmYKUMosu-9">
          <mxGeometry relative="1" as="geometry" />
        </mxCell>
        <mxCell id="usHMp_J7oU0mmYKUMosu-15" style="edgeStyle=orthogonalEdgeStyle;rounded=0;orthogonalLoop=1;jettySize=auto;html=1;exitX=0.5;exitY=1;exitDx=0;exitDy=0;entryX=0;entryY=0.5;entryDx=0;entryDy=0;" edge="1" parent="WIyWlLk6GJQsqaUBKTNV-1" source="usHMp_J7oU0mmYKUMosu-2" target="usHMp_J7oU0mmYKUMosu-8">
          <mxGeometry relative="1" as="geometry">
            <Array as="points">
              <mxPoint x="100" y="230" />
            </Array>
          </mxGeometry>
        </mxCell>
        <mxCell id="usHMp_J7oU0mmYKUMosu-2" value="&lt;b&gt;Company Account&lt;/b&gt;&lt;br&gt;&lt;i&gt;Whitehilt&lt;/i&gt;" style="rounded=1;whiteSpace=wrap;html=1;arcSize=5;" vertex="1" parent="WIyWlLk6GJQsqaUBKTNV-1">
          <mxGeometry x="40" y="40" width="120" height="60" as="geometry" />
        </mxCell>
        <mxCell id="IbO78vqItWdfQY8n-Jqq-17" style="edgeStyle=none;rounded=0;orthogonalLoop=1;jettySize=auto;html=1;exitX=0.5;exitY=1;exitDx=0;exitDy=0;entryX=0.5;entryY=0;entryDx=0;entryDy=0;" edge="1" parent="WIyWlLk6GJQsqaUBKTNV-1" source="usHMp_J7oU0mmYKUMosu-8" target="usHMp_J7oU0mmYKUMosu-9">
          <mxGeometry relative="1" as="geometry" />
        </mxCell>
        <mxCell id="IbO78vqItWdfQY8n-Jqq-33" style="edgeStyle=orthogonalEdgeStyle;rounded=0;orthogonalLoop=1;jettySize=auto;html=1;exitX=1;exitY=0.5;exitDx=0;exitDy=0;entryX=0.5;entryY=0;entryDx=0;entryDy=0;" edge="1" parent="WIyWlLk6GJQsqaUBKTNV-1" source="usHMp_J7oU0mmYKUMosu-8" target="IbO78vqItWdfQY8n-Jqq-32">
          <mxGeometry relative="1" as="geometry" />
        </mxCell>
        <mxCell id="usHMp_J7oU0mmYKUMosu-8" value="Manager" style="rounded=1;whiteSpace=wrap;html=1;fontSize=12;glass=0;strokeWidth=1;shadow=0;" vertex="1" parent="WIyWlLk6GJQsqaUBKTNV-1">
          <mxGeometry x="120" y="210" width="120" height="40" as="geometry" />
        </mxCell>
        <mxCell id="usHMp_J7oU0mmYKUMosu-9" value="Support" style="rounded=1;whiteSpace=wrap;html=1;fontSize=12;glass=0;strokeWidth=1;shadow=0;" vertex="1" parent="WIyWlLk6GJQsqaUBKTNV-1">
          <mxGeometry x="120" y="310" width="120" height="40" as="geometry" />
        </mxCell>
        <mxCell id="usHMp_J7oU0mmYKUMosu-10" value="Content creator" style="rounded=1;whiteSpace=wrap;html=1;fontSize=12;glass=0;strokeWidth=1;shadow=0;" vertex="1" parent="WIyWlLk6GJQsqaUBKTNV-1">
          <mxGeometry x="120" y="625" width="120" height="40" as="geometry" />
        </mxCell>
        <mxCell id="IbO78vqItWdfQY8n-Jqq-19" style="edgeStyle=orthogonalEdgeStyle;rounded=0;orthogonalLoop=1;jettySize=auto;html=1;exitX=0.5;exitY=1;exitDx=0;exitDy=0;entryX=0;entryY=0.5;entryDx=0;entryDy=0;" edge="1" parent="WIyWlLk6GJQsqaUBKTNV-1" source="usHMp_J7oU0mmYKUMosu-11" target="IbO78vqItWdfQY8n-Jqq-15">
          <mxGeometry relative="1" as="geometry" />
        </mxCell>
        <mxCell id="usHMp_J7oU0mmYKUMosu-11" value="Sales" style="rounded=1;whiteSpace=wrap;html=1;fontSize=12;glass=0;strokeWidth=1;shadow=0;" vertex="1" parent="WIyWlLk6GJQsqaUBKTNV-1">
          <mxGeometry x="120" y="500" width="120" height="40" as="geometry" />
        </mxCell>
        <mxCell id="IbO78vqItWdfQY8n-Jqq-0" style="edgeStyle=orthogonalEdgeStyle;rounded=0;orthogonalLoop=1;jettySize=auto;html=1;exitX=1;exitY=0.5;exitDx=0;exitDy=0;entryX=0.5;entryY=0;entryDx=0;entryDy=0;" edge="1" parent="WIyWlLk6GJQsqaUBKTNV-1" source="usHMp_J7oU0mmYKUMosu-8" target="IbO78vqItWdfQY8n-Jqq-8">
          <mxGeometry relative="1" as="geometry">
            <mxPoint x="446" y="120" as="targetPoint" />
          </mxGeometry>
        </mxCell>
        <mxCell id="IbO78vqItWdfQY8n-Jqq-4" style="edgeStyle=orthogonalEdgeStyle;rounded=0;orthogonalLoop=1;jettySize=auto;html=1;exitX=0.5;exitY=1;exitDx=0;exitDy=0;entryX=0;entryY=0.5;entryDx=0;entryDy=0;" edge="1" parent="WIyWlLk6GJQsqaUBKTNV-1" source="usHMp_J7oU0mmYKUMosu-9" target="IbO78vqItWdfQY8n-Jqq-7">
          <mxGeometry relative="1" as="geometry">
            <mxPoint x="336" y="350" as="targetPoint" />
          </mxGeometry>
        </mxCell>
        <mxCell id="IbO78vqItWdfQY8n-Jqq-5" style="edgeStyle=orthogonalEdgeStyle;rounded=0;orthogonalLoop=1;jettySize=auto;html=1;exitX=0.5;exitY=1;exitDx=0;exitDy=0;entryX=0;entryY=0.5;entryDx=0;entryDy=0;" edge="1" parent="WIyWlLk6GJQsqaUBKTNV-1" source="usHMp_J7oU0mmYKUMosu-9" target="IbO78vqItWdfQY8n-Jqq-11">
          <mxGeometry relative="1" as="geometry" />
        </mxCell>
        <mxCell id="IbO78vqItWdfQY8n-Jqq-7" value="Disable/Enable Client Account" style="rounded=1;whiteSpace=wrap;html=1;fontSize=12;glass=0;strokeWidth=1;shadow=0;" vertex="1" parent="WIyWlLk6GJQsqaUBKTNV-1">
          <mxGeometry x="200" y="370" width="150" height="40" as="geometry" />
        </mxCell>
        <mxCell id="IbO78vqItWdfQY8n-Jqq-8" value="Remove Account" style="rounded=1;whiteSpace=wrap;html=1;fontSize=12;glass=0;strokeWidth=1;shadow=0;" vertex="1" parent="WIyWlLk6GJQsqaUBKTNV-1">
          <mxGeometry x="285" y="270" width="150" height="40" as="geometry" />
        </mxCell>
        <mxCell id="IbO78vqItWdfQY8n-Jqq-9" style="edgeStyle=orthogonalEdgeStyle;rounded=0;orthogonalLoop=1;jettySize=auto;html=1;exitX=0.5;exitY=1;exitDx=0;exitDy=0;entryX=0.5;entryY=0;entryDx=0;entryDy=0;" edge="1" parent="WIyWlLk6GJQsqaUBKTNV-1" source="IbO78vqItWdfQY8n-Jqq-10" target="IbO78vqItWdfQY8n-Jqq-14">
          <mxGeometry relative="1" as="geometry" />
        </mxCell>
        <mxCell id="IbO78vqItWdfQY8n-Jqq-10" value="Set password" style="rounded=1;whiteSpace=wrap;html=1;fontSize=12;glass=0;strokeWidth=1;shadow=0;" vertex="1" parent="WIyWlLk6GJQsqaUBKTNV-1">
          <mxGeometry x="385" y="370" width="150" height="40" as="geometry" />
        </mxCell>
        <mxCell id="IbO78vqItWdfQY8n-Jqq-11" value="Reset Client password" style="rounded=1;whiteSpace=wrap;html=1;fontSize=12;glass=0;strokeWidth=1;shadow=0;" vertex="1" parent="WIyWlLk6GJQsqaUBKTNV-1">
          <mxGeometry x="200" y="430" width="150" height="40" as="geometry" />
        </mxCell>
        <mxCell id="IbO78vqItWdfQY8n-Jqq-12" style="edgeStyle=orthogonalEdgeStyle;rounded=0;orthogonalLoop=1;jettySize=auto;html=1;exitX=1;exitY=0.5;exitDx=0;exitDy=0;entryX=0;entryY=0.5;entryDx=0;entryDy=0;" edge="1" parent="WIyWlLk6GJQsqaUBKTNV-1" target="IbO78vqItWdfQY8n-Jqq-10">
          <mxGeometry relative="1" as="geometry">
            <mxPoint x="350" y="390" as="sourcePoint" />
          </mxGeometry>
        </mxCell>
        <mxCell id="IbO78vqItWdfQY8n-Jqq-14" value="Assign user level&lt;br&gt;(1 ,2, 3)" style="rounded=1;whiteSpace=wrap;html=1;fontSize=12;glass=0;strokeWidth=1;shadow=0;" vertex="1" parent="WIyWlLk6GJQsqaUBKTNV-1">
          <mxGeometry x="385" y="430" width="150" height="40" as="geometry" />
        </mxCell>
        <mxCell id="IbO78vqItWdfQY8n-Jqq-15" value="Create Client Account" style="rounded=1;whiteSpace=wrap;html=1;fontSize=12;glass=0;strokeWidth=1;shadow=0;" vertex="1" parent="WIyWlLk6GJQsqaUBKTNV-1">
          <mxGeometry x="200" y="560" width="150" height="40" as="geometry" />
        </mxCell>
        <mxCell id="IbO78vqItWdfQY8n-Jqq-22" value="Support Dashboard" style="shape=process;whiteSpace=wrap;html=1;backgroundOutline=1;" vertex="1" parent="WIyWlLk6GJQsqaUBKTNV-1">
          <mxGeometry x="490" y="800" width="120" height="60" as="geometry" />
        </mxCell>
        <mxCell id="IbO78vqItWdfQY8n-Jqq-23" value="Sales&lt;br&gt;Dashboard" style="shape=process;whiteSpace=wrap;html=1;backgroundOutline=1;" vertex="1" parent="WIyWlLk6GJQsqaUBKTNV-1">
          <mxGeometry x="490" y="880" width="120" height="60" as="geometry" />
        </mxCell>
        <mxCell id="IbO78vqItWdfQY8n-Jqq-24" value="CC Dashboard" style="shape=process;whiteSpace=wrap;html=1;backgroundOutline=1;" vertex="1" parent="WIyWlLk6GJQsqaUBKTNV-1">
          <mxGeometry x="490" y="960" width="120" height="60" as="geometry" />
        </mxCell>
        <mxCell id="IbO78vqItWdfQY8n-Jqq-25" value="Manager Dashboard" style="shape=process;whiteSpace=wrap;html=1;backgroundOutline=1;" vertex="1" parent="WIyWlLk6GJQsqaUBKTNV-1">
          <mxGeometry x="490" y="720" width="120" height="60" as="geometry" />
        </mxCell>
        <mxCell id="IbO78vqItWdfQY8n-Jqq-26" value="Dev Dashboard" style="shape=process;whiteSpace=wrap;html=1;backgroundOutline=1;" vertex="1" parent="WIyWlLk6GJQsqaUBKTNV-1">
          <mxGeometry x="490" y="640" width="120" height="60" as="geometry" />
        </mxCell>
        <mxCell id="IbO78vqItWdfQY8n-Jqq-32" value="Create Staff Account" style="rounded=1;whiteSpace=wrap;html=1;fontSize=12;glass=0;strokeWidth=1;shadow=0;" vertex="1" parent="WIyWlLk6GJQsqaUBKTNV-1">
          <mxGeometry x="460" y="270" width="150" height="40" as="geometry" />
        </mxCell>
      </root>
    </mxGraphModel>
  </diagram>
  <diagram id="N4qpD8uiuQIEzAsZiRmR" name="Client Auth">
    <mxGraphModel dx="1165" dy="794" grid="1" gridSize="10" guides="1" tooltips="1" connect="1" arrows="1" fold="1" page="1" pageScale="1" pageWidth="827" pageHeight="1169" math="0" shadow="0">
      <root>
        <mxCell id="x3TfJhb1I3s283yUIdMb-0" />
        <mxCell id="x3TfJhb1I3s283yUIdMb-1" parent="x3TfJhb1I3s283yUIdMb-0" />
        <mxCell id="x3TfJhb1I3s283yUIdMb-2" style="edgeStyle=orthogonalEdgeStyle;rounded=0;orthogonalLoop=1;jettySize=auto;html=1;exitX=0.5;exitY=1;exitDx=0;exitDy=0;entryX=0;entryY=0.5;entryDx=0;entryDy=0;" edge="1" parent="x3TfJhb1I3s283yUIdMb-1" source="x3TfJhb1I3s283yUIdMb-7" target="x3TfJhb1I3s283yUIdMb-11">
          <mxGeometry relative="1" as="geometry" />
        </mxCell>
        <mxCell id="x3TfJhb1I3s283yUIdMb-3" style="edgeStyle=orthogonalEdgeStyle;rounded=0;orthogonalLoop=1;jettySize=auto;html=1;exitX=0.5;exitY=1;exitDx=0;exitDy=0;entryX=0;entryY=0.5;entryDx=0;entryDy=0;" edge="1" parent="x3TfJhb1I3s283yUIdMb-1" source="x3TfJhb1I3s283yUIdMb-7" target="x3TfJhb1I3s283yUIdMb-12">
          <mxGeometry relative="1" as="geometry" />
        </mxCell>
        <mxCell id="x3TfJhb1I3s283yUIdMb-4" style="edgeStyle=orthogonalEdgeStyle;rounded=0;orthogonalLoop=1;jettySize=auto;html=1;exitX=0.5;exitY=1;exitDx=0;exitDy=0;entryX=0;entryY=0.5;entryDx=0;entryDy=0;" edge="1" parent="x3TfJhb1I3s283yUIdMb-1" source="x3TfJhb1I3s283yUIdMb-7" target="x3TfJhb1I3s283yUIdMb-13">
          <mxGeometry relative="1" as="geometry" />
        </mxCell>
        <mxCell id="x3TfJhb1I3s283yUIdMb-5" style="edgeStyle=orthogonalEdgeStyle;rounded=0;orthogonalLoop=1;jettySize=auto;html=1;exitX=0.5;exitY=1;exitDx=0;exitDy=0;entryX=0;entryY=0.5;entryDx=0;entryDy=0;" edge="1" parent="x3TfJhb1I3s283yUIdMb-1" source="x3TfJhb1I3s283yUIdMb-7" target="x3TfJhb1I3s283yUIdMb-14">
          <mxGeometry relative="1" as="geometry" />
        </mxCell>
        <mxCell id="x3TfJhb1I3s283yUIdMb-6" style="edgeStyle=orthogonalEdgeStyle;rounded=0;orthogonalLoop=1;jettySize=auto;html=1;exitX=0.5;exitY=1;exitDx=0;exitDy=0;entryX=0;entryY=0.5;entryDx=0;entryDy=0;" edge="1" parent="x3TfJhb1I3s283yUIdMb-1" source="x3TfJhb1I3s283yUIdMb-7" target="x3TfJhb1I3s283yUIdMb-15">
          <mxGeometry relative="1" as="geometry" />
        </mxCell>
        <mxCell id="x3TfJhb1I3s283yUIdMb-7" value="&lt;b&gt;Client Account&lt;/b&gt;&lt;br&gt;&lt;i&gt;Fire Rescue Service&lt;/i&gt;" style="rounded=1;whiteSpace=wrap;html=1;arcSize=5;" vertex="1" parent="x3TfJhb1I3s283yUIdMb-1">
          <mxGeometry x="40" y="40" width="120" height="60" as="geometry" />
        </mxCell>
        <mxCell id="x3TfJhb1I3s283yUIdMb-8" value="" style="edgeStyle=orthogonalEdgeStyle;rounded=0;orthogonalLoop=1;jettySize=auto;html=1;" edge="1" parent="x3TfJhb1I3s283yUIdMb-1" source="x3TfJhb1I3s283yUIdMb-10" target="x3TfJhb1I3s283yUIdMb-7">
          <mxGeometry relative="1" as="geometry" />
        </mxCell>
        <mxCell id="x3TfJhb1I3s283yUIdMb-9" style="edgeStyle=orthogonalEdgeStyle;rounded=0;orthogonalLoop=1;jettySize=auto;html=1;exitX=1;exitY=0.5;exitDx=0;exitDy=0;entryX=0;entryY=0.5;entryDx=0;entryDy=0;" edge="1" parent="x3TfJhb1I3s283yUIdMb-1" source="x3TfJhb1I3s283yUIdMb-10" target="x3TfJhb1I3s283yUIdMb-16">
          <mxGeometry relative="1" as="geometry" />
        </mxCell>
        <mxCell id="x3TfJhb1I3s283yUIdMb-10" value="&lt;b&gt;Guest Account&lt;/b&gt;&lt;br&gt;&lt;i&gt;3rd party / demos&lt;/i&gt;" style="rounded=1;whiteSpace=wrap;html=1;arcSize=5;" vertex="1" parent="x3TfJhb1I3s283yUIdMb-1">
          <mxGeometry x="290" y="40" width="120" height="60" as="geometry" />
        </mxCell>
        <mxCell id="ofUDi9bGPqE7FNT7YbZp-3" style="edgeStyle=orthogonalEdgeStyle;rounded=0;orthogonalLoop=1;jettySize=auto;html=1;exitX=1;exitY=0.5;exitDx=0;exitDy=0;entryX=0.5;entryY=0;entryDx=0;entryDy=0;" edge="1" parent="x3TfJhb1I3s283yUIdMb-1" source="x3TfJhb1I3s283yUIdMb-11" target="x3TfJhb1I3s283yUIdMb-23">
          <mxGeometry relative="1" as="geometry">
            <mxPoint x="260" y="170" as="targetPoint" />
          </mxGeometry>
        </mxCell>
        <mxCell id="ofUDi9bGPqE7FNT7YbZp-9" style="edgeStyle=none;rounded=0;orthogonalLoop=1;jettySize=auto;html=1;exitX=0.5;exitY=1;exitDx=0;exitDy=0;entryX=0.5;entryY=0;entryDx=0;entryDy=0;" edge="1" parent="x3TfJhb1I3s283yUIdMb-1" source="x3TfJhb1I3s283yUIdMb-11" target="x3TfJhb1I3s283yUIdMb-12">
          <mxGeometry relative="1" as="geometry" />
        </mxCell>
        <mxCell id="x3TfJhb1I3s283yUIdMb-11" value="Owner&lt;br&gt;(admin)" style="rounded=1;whiteSpace=wrap;html=1;fontSize=12;glass=0;strokeWidth=1;shadow=0;" vertex="1" parent="x3TfJhb1I3s283yUIdMb-1">
          <mxGeometry x="124" y="150" width="120" height="40" as="geometry" />
        </mxCell>
        <mxCell id="ofUDi9bGPqE7FNT7YbZp-5" style="edgeStyle=orthogonalEdgeStyle;rounded=0;orthogonalLoop=1;jettySize=auto;html=1;exitX=0.5;exitY=1;exitDx=0;exitDy=0;entryX=0;entryY=0.5;entryDx=0;entryDy=0;" edge="1" parent="x3TfJhb1I3s283yUIdMb-1" source="x3TfJhb1I3s283yUIdMb-12" target="ofUDi9bGPqE7FNT7YbZp-2">
          <mxGeometry relative="1" as="geometry" />
        </mxCell>
        <mxCell id="ofUDi9bGPqE7FNT7YbZp-6" style="edgeStyle=orthogonalEdgeStyle;rounded=0;orthogonalLoop=1;jettySize=auto;html=1;exitX=0.5;exitY=1;exitDx=0;exitDy=0;entryX=0;entryY=0.5;entryDx=0;entryDy=0;" edge="1" parent="x3TfJhb1I3s283yUIdMb-1" source="x3TfJhb1I3s283yUIdMb-12" target="x3TfJhb1I3s283yUIdMb-22">
          <mxGeometry relative="1" as="geometry">
            <mxPoint x="150" y="360" as="targetPoint" />
          </mxGeometry>
        </mxCell>
        <mxCell id="ofUDi9bGPqE7FNT7YbZp-10" style="edgeStyle=orthogonalEdgeStyle;rounded=0;orthogonalLoop=1;jettySize=auto;html=1;exitX=0.5;exitY=1;exitDx=0;exitDy=0;entryX=0;entryY=0.5;entryDx=0;entryDy=0;" edge="1" parent="x3TfJhb1I3s283yUIdMb-1" source="x3TfJhb1I3s283yUIdMb-12" target="ofUDi9bGPqE7FNT7YbZp-1">
          <mxGeometry relative="1" as="geometry" />
        </mxCell>
        <mxCell id="x3TfJhb1I3s283yUIdMb-12" value="Manager&lt;br&gt;(HR)" style="rounded=1;whiteSpace=wrap;html=1;fontSize=12;glass=0;strokeWidth=1;shadow=0;" vertex="1" parent="x3TfJhb1I3s283yUIdMb-1">
          <mxGeometry x="124" y="260" width="120" height="40" as="geometry" />
        </mxCell>
        <mxCell id="x3TfJhb1I3s283yUIdMb-13" value="Level 1&lt;br&gt;(app user)" style="rounded=1;whiteSpace=wrap;html=1;fontSize=12;glass=0;strokeWidth=1;shadow=0;" vertex="1" parent="x3TfJhb1I3s283yUIdMb-1">
          <mxGeometry x="124" y="500" width="120" height="40" as="geometry" />
        </mxCell>
        <mxCell id="x3TfJhb1I3s283yUIdMb-14" value="Level 2&lt;br&gt;(app user)" style="rounded=1;whiteSpace=wrap;html=1;fontSize=12;glass=0;strokeWidth=1;shadow=0;" vertex="1" parent="x3TfJhb1I3s283yUIdMb-1">
          <mxGeometry x="124" y="570" width="120" height="40" as="geometry" />
        </mxCell>
        <mxCell id="x3TfJhb1I3s283yUIdMb-15" value="Level 3&lt;br&gt;(app user)" style="rounded=1;whiteSpace=wrap;html=1;fontSize=12;glass=0;strokeWidth=1;shadow=0;" vertex="1" parent="x3TfJhb1I3s283yUIdMb-1">
          <mxGeometry x="124" y="640" width="120" height="40" as="geometry" />
        </mxCell>
        <mxCell id="x3TfJhb1I3s283yUIdMb-16" value="Viewer&lt;br&gt;(read only)" style="rounded=1;whiteSpace=wrap;html=1;fontSize=12;glass=0;strokeWidth=1;shadow=0;" vertex="1" parent="x3TfJhb1I3s283yUIdMb-1">
          <mxGeometry x="530" y="50" width="120" height="40" as="geometry" />
        </mxCell>
        <mxCell id="x3TfJhb1I3s283yUIdMb-17" value="Yes" style="rounded=0;html=1;jettySize=auto;orthogonalLoop=1;fontSize=11;endArrow=block;endFill=0;endSize=8;strokeWidth=1;shadow=0;labelBackgroundColor=none;edgeStyle=orthogonalEdgeStyle;" edge="1" parent="x3TfJhb1I3s283yUIdMb-1" source="x3TfJhb1I3s283yUIdMb-19" target="x3TfJhb1I3s283yUIdMb-20">
          <mxGeometry y="20" relative="1" as="geometry">
            <mxPoint as="offset" />
          </mxGeometry>
        </mxCell>
        <mxCell id="x3TfJhb1I3s283yUIdMb-18" value="No" style="edgeStyle=orthogonalEdgeStyle;rounded=0;html=1;jettySize=auto;orthogonalLoop=1;fontSize=11;endArrow=block;endFill=0;endSize=8;strokeWidth=1;shadow=0;labelBackgroundColor=none;" edge="1" parent="x3TfJhb1I3s283yUIdMb-1" source="x3TfJhb1I3s283yUIdMb-19">
          <mxGeometry y="10" relative="1" as="geometry">
            <mxPoint as="offset" />
            <mxPoint x="415" y="722.5" as="targetPoint" />
          </mxGeometry>
        </mxCell>
        <mxCell id="x3TfJhb1I3s283yUIdMb-19" value="User &lt;br&gt;Logged in" style="rhombus;whiteSpace=wrap;html=1;shadow=0;fontFamily=Helvetica;fontSize=12;align=center;strokeWidth=1;spacing=6;spacingTop=-4;" vertex="1" parent="x3TfJhb1I3s283yUIdMb-1">
          <mxGeometry x="365" y="582.5" width="100" height="80" as="geometry" />
        </mxCell>
        <mxCell id="x3TfJhb1I3s283yUIdMb-20" value="Homescreen&lt;br&gt;Component views &lt;br&gt;based on role" style="rhombus;whiteSpace=wrap;html=1;shadow=0;fontFamily=Helvetica;fontSize=12;align=center;strokeWidth=1;spacing=6;spacingTop=-4;" vertex="1" parent="x3TfJhb1I3s283yUIdMb-1">
          <mxGeometry x="535" y="557.5" width="180" height="130" as="geometry" />
        </mxCell>
        <mxCell id="x3TfJhb1I3s283yUIdMb-21" value="Redirect to login page" style="rounded=1;whiteSpace=wrap;html=1;fontSize=12;glass=0;strokeWidth=1;shadow=0;" vertex="1" parent="x3TfJhb1I3s283yUIdMb-1">
          <mxGeometry x="340" y="722.5" width="150" height="40" as="geometry" />
        </mxCell>
        <mxCell id="x3TfJhb1I3s283yUIdMb-22" value="Disable/Enable Account" style="rounded=1;whiteSpace=wrap;html=1;fontSize=12;glass=0;strokeWidth=1;shadow=0;" vertex="1" parent="x3TfJhb1I3s283yUIdMb-1">
          <mxGeometry x="210" y="320" width="150" height="40" as="geometry" />
        </mxCell>
        <mxCell id="x3TfJhb1I3s283yUIdMb-23" value="Remove Account" style="rounded=1;whiteSpace=wrap;html=1;fontSize=12;glass=0;strokeWidth=1;shadow=0;" vertex="1" parent="x3TfJhb1I3s283yUIdMb-1">
          <mxGeometry x="210" y="200" width="150" height="40" as="geometry" />
        </mxCell>
        <mxCell id="ofUDi9bGPqE7FNT7YbZp-13" style="edgeStyle=orthogonalEdgeStyle;rounded=0;orthogonalLoop=1;jettySize=auto;html=1;exitX=0.5;exitY=1;exitDx=0;exitDy=0;entryX=0.5;entryY=0;entryDx=0;entryDy=0;" edge="1" parent="x3TfJhb1I3s283yUIdMb-1" source="ofUDi9bGPqE7FNT7YbZp-0" target="ofUDi9bGPqE7FNT7YbZp-12">
          <mxGeometry relative="1" as="geometry" />
        </mxCell>
        <mxCell id="ofUDi9bGPqE7FNT7YbZp-0" value="Set password" style="rounded=1;whiteSpace=wrap;html=1;fontSize=12;glass=0;strokeWidth=1;shadow=0;" vertex="1" parent="x3TfJhb1I3s283yUIdMb-1">
          <mxGeometry x="430" y="380" width="150" height="40" as="geometry" />
        </mxCell>
        <mxCell id="ofUDi9bGPqE7FNT7YbZp-1" value="Reset password" style="rounded=1;whiteSpace=wrap;html=1;fontSize=12;glass=0;strokeWidth=1;shadow=0;" vertex="1" parent="x3TfJhb1I3s283yUIdMb-1">
          <mxGeometry x="210" y="440" width="150" height="40" as="geometry" />
        </mxCell>
        <mxCell id="ofUDi9bGPqE7FNT7YbZp-11" style="edgeStyle=orthogonalEdgeStyle;rounded=0;orthogonalLoop=1;jettySize=auto;html=1;exitX=1;exitY=0.5;exitDx=0;exitDy=0;entryX=0;entryY=0.5;entryDx=0;entryDy=0;" edge="1" parent="x3TfJhb1I3s283yUIdMb-1" source="ofUDi9bGPqE7FNT7YbZp-2" target="ofUDi9bGPqE7FNT7YbZp-0">
          <mxGeometry relative="1" as="geometry" />
        </mxCell>
        <mxCell id="ofUDi9bGPqE7FNT7YbZp-2" value="Create Account" style="rounded=1;whiteSpace=wrap;html=1;fontSize=12;glass=0;strokeWidth=1;shadow=0;" vertex="1" parent="x3TfJhb1I3s283yUIdMb-1">
          <mxGeometry x="210" y="380" width="150" height="40" as="geometry" />
        </mxCell>
        <mxCell id="ofUDi9bGPqE7FNT7YbZp-12" value="Assign user level&lt;br&gt;(1 ,2 3)" style="rounded=1;whiteSpace=wrap;html=1;fontSize=12;glass=0;strokeWidth=1;shadow=0;" vertex="1" parent="x3TfJhb1I3s283yUIdMb-1">
          <mxGeometry x="430" y="440" width="150" height="40" as="geometry" />
        </mxCell>
      </root>
    </mxGraphModel>
  </diagram>
</mxfile>
